<?xml version="1.0" encoding="UTF-8" standalone="no"?>
<svg
   xmlns:dc="http://purl.org/dc/elements/1.1/"
   xmlns:cc="http://creativecommons.org/ns#"
   xmlns:rdf="http://www.w3.org/1999/02/22-rdf-syntax-ns#"
   xmlns:svg="http://www.w3.org/2000/svg"
   xmlns="http://www.w3.org/2000/svg"
   xmlns:sodipodi="http://sodipodi.sourceforge.net/DTD/sodipodi-0.dtd"
   xmlns:inkscape="http://www.inkscape.org/namespaces/inkscape"
   sodipodi:docname="refresh.svg"
   inkscape:version="1.0alpha (f75834d, 2019-05-31)"
   id="svg8"
   version="1.1"
   viewBox="0 0 135.46666 135.46667"
   height="512"
   width="512">
  <defs
     id="defs2" />
  <sodipodi:namedview
     units="px"
     inkscape:window-maximized="1"
     inkscape:window-y="-8"
     inkscape:window-x="-8"
     inkscape:window-height="1017"
     inkscape:window-width="1920"
     showgrid="false"
     inkscape:document-rotation="0"
     inkscape:current-layer="layer1"
     inkscape:document-units="mm"
     inkscape:cy="293.61816"
     inkscape:cx="265.45638"
     inkscape:zoom="0.80901639"
     inkscape:pageshadow="2"
     inkscape:pageopacity="0.0"
     borderopacity="1.0"
     bordercolor="#666666"
     pagecolor="#ffffff"
     id="base" />
  <metadata
     id="metadata5">
    <rdf:RDF>
      <cc:Work
         rdf:about="">
        <dc:format>image/svg+xml</dc:format>
        <dc:type
           rdf:resource="http://purl.org/dc/dcmitype/StillImage" />
        <dc:title></dc:title>
      </cc:Work>
    </rdf:RDF>
  </metadata>
  <g
     id="layer1"
     inkscape:groupmode="layer"
     inkscape:label="Layer 1">
    <path
       sodipodi:nodetypes="csccccccsccccscssssscsscccccscssscsscccsscccscccc"
       inkscape:connector-curvature="0"
       id="path847"
       d="m 62.609166,123.90859 c -2.97095,-0.26524 -8.996262,-1.55987 -12.190902,-2.61941 -12.25074,-4.06311 -23.52994,-13.03371 -30.33172,-24.123505 -1.76618,-2.879632 -4.2153,-8.022252 -5.08221,-10.671532 l -0.60604,-1.85208 -4.4695703,-0.002 c -2.4582601,-0.001 -5.0576501,-0.1653 -5.7764301,-0.36493 -2.56033,-0.71108 -3.52426002,-3.47432 -2.05348,-5.88654 1.95593,-3.20789 18.8729704,-25.25558 19.8206304,-25.83189 2.22607,-1.35376 5.13458,-1.20729 7.12558,0.35884 0.95829,0.75379 16.84876,23.20927 17.94787,25.36289 0.90213,1.76764 0.81385,3.73559 -0.21367,4.76311 -1.252,1.25199 -3.06661,1.59635 -8.42354,1.59852 -2.66788,0.001 -4.85069,-0.0359 -4.85069,0.11778 0,0.71188 3.69036,6.31424 5.69939,8.56327 4.00056,4.478452 7.26206,6.909107 12.69201,9.458787 5.801312,2.72405 12.037752,3.81226 19.044782,3.32314 9.147,-0.63849 18.61755,-5.29997 25.27007,-12.438137 1.4067,-1.50939 2.55764,-3.05053 2.55764,-3.22491 0,-0.18011 4.423664,-0.15337 10.253714,-0.15337 h 10.25371 l -1.83725,3.51322 c -4.82083,9.218497 -13.85869,18.275747 -23.426454,23.476737 -9.55161,5.1922 -20.83666,7.57551 -31.40344,6.63213 z M 108.18234,83.441353 c -0.74044,-0.27285 -1.67125,-0.789 -2.06845,-1.147 -0.88621,-0.79874 -16.790784,-23.45631 -17.657904,-25.15536 -0.90213,-1.76764 -0.81385,-3.73558 0.21368,-4.76311 1.25199,-1.25199 3.0666,-1.59635 8.42353,-1.59852 2.66788,-10e-4 4.850694,0.0358 4.850694,-0.11778 0,-0.65762 -3.635504,-6.249675 -5.526354,-8.415485 -6.46822,-7.40879 -15.50838,-12.06915 -25.03033,-12.90355 -12.14069,-1.06389 -23.764502,3.43897 -32.203062,12.47489 -1.37728,1.47479 -2.50415,2.997541 -2.50415,3.171911 0,0.18026 -4.42529,0.143599 -10.2577,0.143599 h -10.25771 l 1.787,-3.39443 c 2.66348,-5.05936 5.3753,-8.65243 10.08535,-13.36281 7.88196,-7.88249 16.15889,-12.67959 26.45834,-15.33459 25.437862,-6.5573928 52.514486,6.52551 63.862446,30.85711 0.81443,1.74625 1.7535,4.00843 2.08683,5.02708 l 0.60604,1.852085 4.46957,0.002 c 5.12501,0.002 6.78832,0.35288 7.80491,1.64526 1.16289,1.47837 0.95111,3.22593 -0.68261,5.63271 -3.80861,5.61082 -18.28738,24.34272 -19.23509,24.88539 -1.53212,0.8773 -3.65172,1.08038 -5.22503,0.50063 z"
       style="fill:#ffffff;stroke-width:0.352778;fill-opacity:1" />
  </g>
</svg>
